<svg xmlns="http://www.w3.org/2000/svg" height="40px" viewBox="0 -960 960 960" width="40px" fill="#e8eaed"><path d="M186.67-120q-27 0-46.84-19.83Q120-159.67 120-186.67v-586.66q0-27 19.83-46.84Q159.67-840 186.67-840h586.66q27 0 46.84 19.83Q840-800.33 840-773.33v586.66q0 27-19.83 46.84Q800.33-120 773.33-120H186.67Zm0-66.67h586.66v-586.66H186.67v586.66ZM448-360h52v-240h-52v240Zm-172 0h82.67q15.3 0 25.65-10.35 10.35-10.35 10.35-25.65v-84h-52v68H292v-136h102.67v-16q0-15.3-10.35-25.65Q373.97-600 358.67-600H276q-15.3 0-25.65 10.35Q240-579.3 240-564v168q0 15.3 10.35 25.65Q260.7-360 276-360Zm284 0h52v-82.67h73.33v-52H612V-548h114.67v-52H560v240ZM186.67-186.67v-586.66 586.66Z"/></svg>